<svg width="63" height="63" viewBox="0 0 63 63" fill="none" xmlns="http://www.w3.org/2000/svg">
    <path fill-rule="evenodd" clip-rule="evenodd" d="M19.5956 2.79824C22.6747 2.65649 23.6564 2.62499 31.4999 2.62499C39.3434 2.62499 40.3252 2.65912 43.4017 2.79824C46.4782 2.93737 48.5782 3.42824 50.4157 4.13962C52.3398 4.86674 54.0854 6.00337 55.5292 7.47337C56.9992 8.91449 58.1332 10.6575 58.8577 12.5842C59.5717 14.4217 60.0599 16.5217 60.2017 19.593C60.3434 22.6774 60.3749 23.6591 60.3749 31.5C60.3749 39.3435 60.3408 40.3252 60.2017 43.4044C60.0626 46.4756 59.5717 48.5756 58.8577 50.4131C58.1332 52.3401 56.9973 54.086 55.5292 55.5292C54.0854 56.9992 52.3398 58.1332 50.4157 58.8577C48.5782 59.5717 46.4782 60.06 43.4069 60.2017C40.3252 60.3435 39.3434 60.375 31.4999 60.375C23.6564 60.375 22.6747 60.3409 19.5956 60.2017C16.5243 60.0626 14.4243 59.5717 12.5868 58.8577C10.6599 58.1331 8.91397 56.9973 7.47069 55.5292C6.00169 54.0872 4.86489 52.3422 4.13956 50.4157C3.42819 48.5782 2.93994 46.4782 2.79819 43.407C2.65644 40.3226 2.62494 39.3409 2.62494 31.5C2.62494 23.6565 2.65906 22.6747 2.79819 19.5982C2.93731 16.5217 3.42819 14.4217 4.13956 12.5842C4.86596 10.6577 6.00363 8.91269 7.47331 7.47074C8.91454 6.00206 10.6587 4.86528 12.5842 4.13962C14.4217 3.42824 16.5217 2.93999 19.5929 2.79824H19.5956ZM43.1681 7.99574C40.1231 7.85662 39.2096 7.82774 31.4999 7.82774C23.7903 7.82774 22.8768 7.85662 19.8318 7.99574C17.0152 8.12437 15.4874 8.59424 14.4689 8.99062C13.1223 9.51562 12.1589 10.1377 11.1483 11.1484C10.1903 12.0804 9.45304 13.215 8.99056 14.469C8.59419 15.4875 8.12431 17.0152 7.99569 19.8319C7.85656 22.8769 7.82769 23.7904 7.82769 31.5C7.82769 39.2096 7.85656 40.1231 7.99569 43.1681C8.12431 45.9847 8.59419 47.5125 8.99056 48.531C9.45256 49.7831 10.1902 50.9197 11.1483 51.8516C12.0802 52.8097 13.2168 53.5474 14.4689 54.0094C15.4874 54.4057 17.0152 54.8756 19.8318 55.0042C22.8768 55.1434 23.7877 55.1722 31.4999 55.1722C39.2122 55.1722 40.1231 55.1434 43.1681 55.0042C45.9847 54.8756 47.5124 54.4057 48.5309 54.0094C49.8776 53.4844 50.8409 52.8622 51.8516 51.8516C52.8097 50.9197 53.5473 49.7831 54.0093 48.531C54.4057 47.5125 54.8756 45.9847 55.0042 43.1681C55.1433 40.1231 55.1722 39.2096 55.1722 31.5C55.1722 23.7904 55.1433 22.8769 55.0042 19.8319C54.8756 17.0152 54.4057 15.4875 54.0093 14.469C53.4843 13.1224 52.8622 12.159 51.8516 11.1484C50.9195 10.1904 49.7849 9.45317 48.5309 8.99062C47.5124 8.59424 45.9847 8.12437 43.1681 7.99574ZM27.8118 40.4014C29.8715 41.2588 32.1651 41.3745 34.3006 40.7288C36.4362 40.083 38.2813 38.7159 39.5209 36.8609C40.7605 35.0059 41.3176 32.778 41.0971 30.5579C40.8765 28.3378 39.8921 26.263 38.3118 24.6881C37.3044 23.6814 36.0864 22.9105 34.7453 22.431C33.4043 21.9515 31.9736 21.7753 30.5562 21.9151C29.1389 22.0549 27.7702 22.5072 26.5487 23.2395C25.3271 23.9717 24.2831 24.9657 23.4919 26.1498C22.7006 27.334 22.1817 28.6789 21.9725 30.0876C21.7634 31.4964 21.8692 32.934 22.2824 34.297C22.6955 35.6599 23.4057 36.9143 24.3618 37.9699C25.318 39.0254 26.4962 39.8558 27.8118 40.4014ZM21.0052 21.0052C22.3834 19.6271 24.0195 18.5338 25.8202 17.7879C27.6209 17.0421 29.5509 16.6582 31.4999 16.6582C33.449 16.6582 35.379 17.0421 37.1797 17.7879C38.9804 18.5338 40.6165 19.6271 41.9947 21.0052C43.3729 22.3834 44.4661 24.0196 45.212 25.8203C45.9579 27.621 46.3418 29.5509 46.3418 31.5C46.3418 33.449 45.9579 35.379 45.212 37.1797C44.4661 38.9804 43.3729 40.6166 41.9947 41.9947C39.2113 44.7781 35.4362 46.3418 31.4999 46.3418C27.5636 46.3418 23.7886 44.7781 21.0052 41.9947C18.2218 39.2114 16.6581 35.4363 16.6581 31.5C16.6581 27.5637 18.2218 23.7886 21.0052 21.0052ZM49.6334 18.8685C49.975 18.5463 50.2484 18.1589 50.4375 17.7292C50.6266 17.2994 50.7276 16.8361 50.7344 16.3667C50.7413 15.8972 50.6538 15.4312 50.4773 14.9961C50.3008 14.5611 50.0388 14.1658 49.7068 13.8338C49.3748 13.5019 48.9796 13.2399 48.5446 13.0634C48.1095 12.8868 47.6434 12.7994 47.174 12.8063C46.7045 12.8131 46.2412 12.9141 45.8115 13.1032C45.3818 13.2923 44.9944 13.5657 44.6722 13.9072C44.0456 14.5714 43.7026 15.4537 43.7159 16.3667C43.7292 17.2797 44.0978 18.1515 44.7435 18.7972C45.3891 19.4429 46.261 19.8115 47.174 19.8248C48.087 19.8381 48.9692 19.4951 49.6334 18.8685Z" fill="#241400" />
</svg>
    