<svg width="283" height="94" viewBox="0 0 283 94" fill="none" xmlns="http://www.w3.org/2000/svg">
    <path d="M75.8365 24.9212H79.1405V32.1592H83.5645V34.7212H75.8365V24.9212ZM84.4771 24.9212H87.7811V34.7212H84.4771V24.9212ZM97.2117 29.5972C97.7903 29.8119 98.2383 30.1245 98.5557 30.5352C98.873 30.9459 99.0317 31.4405 99.0317 32.0192C99.0317 32.8779 98.677 33.5452 97.9677 34.0212C97.2583 34.4879 96.2317 34.7212 94.8877 34.7212H89.3717V24.9212H94.6077C95.9143 24.9212 96.899 25.1545 97.5617 25.6212C98.2337 26.0879 98.5697 26.7085 98.5697 27.4832C98.5697 27.9405 98.453 28.3512 98.2197 28.7152C97.9957 29.0792 97.6597 29.3732 97.2117 29.5972ZM92.6197 27.2312V28.6872H94.1597C94.8783 28.6872 95.2377 28.4445 95.2377 27.9592C95.2377 27.4739 94.8783 27.2312 94.1597 27.2312H92.6197ZM94.6077 32.4112C95.3357 32.4112 95.6997 32.1545 95.6997 31.6412C95.6997 31.1279 95.3357 30.8712 94.6077 30.8712H92.6197V32.4112H94.6077ZM104.4 32.2572H103.504V34.7212H100.2V24.9212H104.918C105.823 24.9212 106.612 25.0705 107.284 25.3692C107.956 25.6679 108.474 26.0972 108.838 26.6572C109.202 27.2172 109.384 27.8705 109.384 28.6172C109.384 29.3172 109.225 29.9285 108.908 30.4512C108.59 30.9739 108.133 31.3892 107.536 31.6972L109.594 34.7212H106.066L104.4 32.2572ZM106.052 28.6172C106.052 28.2532 105.94 27.9732 105.716 27.7772C105.492 27.5719 105.156 27.4692 104.708 27.4692H103.504V29.7652H104.708C105.156 29.7652 105.492 29.6672 105.716 29.4712C105.94 29.2659 106.052 28.9812 106.052 28.6172ZM117.309 33.0132H113.585L112.927 34.7212H109.567L113.851 24.9212H117.099L121.383 34.7212H117.967L117.309 33.0132ZM116.399 30.6332L115.447 28.1692L114.495 30.6332H116.399ZM126.111 32.2572H125.215V34.7212H121.911V24.9212H126.629C127.534 24.9212 128.323 25.0705 128.995 25.3692C129.667 25.6679 130.185 26.0972 130.549 26.6572C130.913 27.2172 131.095 27.8705 131.095 28.6172C131.095 29.3172 130.936 29.9285 130.619 30.4512C130.301 30.9739 129.844 31.3892 129.247 31.6972L131.305 34.7212H127.777L126.111 32.2572ZM127.763 28.6172C127.763 28.2532 127.651 27.9732 127.427 27.7772C127.203 27.5719 126.867 27.4692 126.419 27.4692H125.215V29.7652H126.419C126.867 29.7652 127.203 29.6672 127.427 29.4712C127.651 29.2659 127.763 28.9812 127.763 28.6172ZM138.03 31.1652V34.7212H134.726V31.1232L131.03 24.9212H134.516L136.518 28.3092L138.534 24.9212H141.726L138.03 31.1652Z" fill="white"/>
    <path d="M87.0172 64.7502H81.9472L80.8552 67.1812H79.8542L84.0142 58.0812H84.9632L89.1232 67.1812H88.1092L87.0172 64.7502ZM86.6662 63.9702L84.4822 59.0822L82.2982 63.9702H86.6662ZM96.6101 57.5352V67.1812H95.7261V65.8292C95.4488 66.2885 95.0804 66.6395 94.6211 66.8822C94.1704 67.1248 93.6591 67.2462 93.0871 67.2462C92.4458 67.2462 91.8651 67.0988 91.3451 66.8042C90.8251 66.5095 90.4178 66.0978 90.1231 65.5692C89.8284 65.0405 89.6811 64.4382 89.6811 63.7622C89.6811 63.0862 89.8284 62.4838 90.1231 61.9552C90.4178 61.4265 90.8251 61.0192 91.3451 60.7332C91.8651 60.4385 92.4458 60.2912 93.0871 60.2912C93.6418 60.2912 94.1401 60.4082 94.5821 60.6422C95.0328 60.8675 95.4011 61.2012 95.6871 61.6432V57.5352H96.6101ZM93.1651 66.4272C93.6418 66.4272 94.0708 66.3188 94.4521 66.1022C94.8421 65.8768 95.1454 65.5605 95.3621 65.1532C95.5874 64.7458 95.7001 64.2822 95.7001 63.7622C95.7001 63.2422 95.5874 62.7785 95.3621 62.3712C95.1454 61.9638 94.8421 61.6518 94.4521 61.4352C94.0708 61.2098 93.6418 61.0972 93.1651 61.0972C92.6798 61.0972 92.2421 61.2098 91.8521 61.4352C91.4708 61.6518 91.1674 61.9638 90.9421 62.3712C90.7254 62.7785 90.6171 63.2422 90.6171 63.7622C90.6171 64.2822 90.7254 64.7458 90.9421 65.1532C91.1674 65.5605 91.4708 65.8768 91.8521 66.1022C92.2421 66.3188 92.6798 66.4272 93.1651 66.4272ZM107.709 60.2912C108.567 60.2912 109.238 60.5382 109.724 61.0322C110.218 61.5262 110.465 62.2542 110.465 63.2162V67.1812H109.542V63.3072C109.542 62.5965 109.368 62.0548 109.022 61.6822C108.684 61.3095 108.203 61.1232 107.579 61.1232C106.868 61.1232 106.309 61.3442 105.902 61.7862C105.494 62.2195 105.291 62.8218 105.291 63.5932V67.1812H104.368V63.3072C104.368 62.5965 104.194 62.0548 103.848 61.6822C103.51 61.3095 103.024 61.1232 102.392 61.1232C101.69 61.1232 101.131 61.3442 100.715 61.7862C100.307 62.2195 100.104 62.8218 100.104 63.5932V67.1812H99.1806V60.3432H100.065V61.5912C100.307 61.1752 100.645 60.8545 101.079 60.6292C101.512 60.4038 102.01 60.2912 102.574 60.2912C103.146 60.2912 103.64 60.4125 104.056 60.6552C104.48 60.8978 104.797 61.2575 105.005 61.7342C105.256 61.2835 105.616 60.9325 106.084 60.6812C106.56 60.4212 107.102 60.2912 107.709 60.2912ZM112.968 60.3432H113.891V67.1812H112.968V60.3432ZM113.436 58.8482C113.245 58.8482 113.085 58.7832 112.955 58.6532C112.825 58.5232 112.76 58.3672 112.76 58.1852C112.76 58.0118 112.825 57.8602 112.955 57.7302C113.085 57.6002 113.245 57.5352 113.436 57.5352C113.626 57.5352 113.787 57.6002 113.917 57.7302C114.047 57.8515 114.112 57.9988 114.112 58.1722C114.112 58.3628 114.047 58.5232 113.917 58.6532C113.787 58.7832 113.626 58.8482 113.436 58.8482ZM119.943 60.2912C120.801 60.2912 121.481 60.5425 121.984 61.0452C122.495 61.5392 122.751 62.2628 122.751 63.2162V67.1812H121.828V63.3072C121.828 62.5965 121.65 62.0548 121.295 61.6822C120.94 61.3095 120.433 61.1232 119.774 61.1232C119.037 61.1232 118.452 61.3442 118.019 61.7862C117.594 62.2195 117.382 62.8218 117.382 63.5932V67.1812H116.459V60.3432H117.343V61.6042C117.594 61.1882 117.941 60.8675 118.383 60.6422C118.834 60.4082 119.354 60.2912 119.943 60.2912ZM132.26 58.0812C133.421 58.0812 134.331 58.3585 134.99 58.9132C135.649 59.4678 135.978 60.2305 135.978 61.2012C135.978 62.1718 135.649 62.9345 134.99 63.4892C134.331 64.0352 133.421 64.3082 132.26 64.3082H129.816V67.1812H128.854V58.0812H132.26ZM132.234 63.4632C133.135 63.4632 133.824 63.2682 134.301 62.8782C134.778 62.4795 135.016 61.9205 135.016 61.2012C135.016 60.4645 134.778 59.9012 134.301 59.5112C133.824 59.1125 133.135 58.9132 132.234 58.9132H129.816V63.4632H132.234ZM140.192 60.2912C141.084 60.2912 141.769 60.5165 142.246 60.9672C142.722 61.4092 142.961 62.0678 142.961 62.9432V67.1812H142.077V66.1152C141.869 66.4705 141.561 66.7478 141.154 66.9472C140.755 67.1465 140.278 67.2462 139.724 67.2462C138.961 67.2462 138.354 67.0642 137.904 66.7002C137.453 66.3362 137.228 65.8552 137.228 65.2572C137.228 64.6765 137.436 64.2085 137.852 63.8532C138.276 63.4978 138.948 63.3202 139.867 63.3202H142.038V62.9042C142.038 62.3148 141.873 61.8685 141.544 61.5652C141.214 61.2532 140.733 61.0972 140.101 61.0972C139.667 61.0972 139.251 61.1708 138.853 61.3182C138.454 61.4568 138.112 61.6518 137.826 61.9032L137.41 61.2142C137.756 60.9195 138.172 60.6942 138.658 60.5382C139.143 60.3735 139.654 60.2912 140.192 60.2912ZM139.867 66.5182C140.387 66.5182 140.833 66.4012 141.206 66.1672C141.578 65.9245 141.856 65.5778 142.038 65.1272V64.0092H139.893C138.723 64.0092 138.138 64.4165 138.138 65.2312C138.138 65.6298 138.289 65.9462 138.593 66.1802C138.896 66.4055 139.321 66.5182 139.867 66.5182ZM148.952 60.2912C149.81 60.2912 150.49 60.5425 150.993 61.0452C151.504 61.5392 151.76 62.2628 151.76 63.2162V67.1812H150.837V63.3072C150.837 62.5965 150.659 62.0548 150.304 61.6822C149.948 61.3095 149.441 61.1232 148.783 61.1232C148.046 61.1232 147.461 61.3442 147.028 61.7862C146.603 62.2195 146.391 62.8218 146.391 63.5932V67.1812H145.468V60.3432H146.352V61.6042C146.603 61.1882 146.95 60.8675 147.392 60.6422C147.842 60.4082 148.362 60.2912 148.952 60.2912ZM160.245 64.0482H154.525C154.577 64.7588 154.85 65.3352 155.344 65.7772C155.838 66.2105 156.462 66.4272 157.216 66.4272C157.641 66.4272 158.031 66.3535 158.386 66.2062C158.741 66.0502 159.049 65.8248 159.309 65.5302L159.829 66.1282C159.526 66.4922 159.144 66.7695 158.685 66.9602C158.234 67.1508 157.736 67.2462 157.19 67.2462C156.488 67.2462 155.864 67.0988 155.318 66.8042C154.781 66.5008 154.36 66.0848 154.057 65.5562C153.754 65.0275 153.602 64.4295 153.602 63.7622C153.602 63.0948 153.745 62.4968 154.031 61.9682C154.326 61.4395 154.724 61.0278 155.227 60.7332C155.738 60.4385 156.31 60.2912 156.943 60.2912C157.576 60.2912 158.143 60.4385 158.646 60.7332C159.149 61.0278 159.543 61.4395 159.829 61.9682C160.115 62.4882 160.258 63.0862 160.258 63.7622L160.245 64.0482ZM156.943 61.0842C156.284 61.0842 155.73 61.2965 155.279 61.7212C154.837 62.1372 154.586 62.6832 154.525 63.3592H159.374C159.313 62.6832 159.058 62.1372 158.607 61.7212C158.165 61.2965 157.61 61.0842 156.943 61.0842ZM162.137 57.5352H163.06V67.1812H162.137V57.5352Z" fill="white"/>
    <line x1="76.6351" y1="47.2197" x2="279.399" y2="47.2197" stroke="white" stroke-opacity="0.59"/>
    <g clip-path="url(#clip0_215_55)">
    <path d="M62.272 33.2464C62.0008 30.3984 61.9626 25.4931 63.8559 23.846C63.8897 23.8158 63.9149 23.7722 63.9446 23.7347C65.4925 23.043 66.5637 22.0722 65.7228 20.7659L42.8889 11.1533L5.91562 18.3354C5.91562 18.3354 1.68171 19.1809 2.05993 28.3713C2.26526 33.3733 3.38812 35.8299 4.3701 37.0389L1.33611 38.3164C0.494008 39.6227 1.56504 40.5937 3.11316 41.2843C3.14258 41.3229 3.16739 41.3662 3.20181 41.3964C5.09393 43.0449 5.05751 47.9497 4.78535 50.7982C-2.01208 53.495 0.427968 54.3737 0.427968 54.3737L1.91905 54.8779C0.87023 56.202 -0.171386 58.7131 0.0237292 63.4755C0.402153 72.6643 3.87981 73.2984 3.87981 73.2984L28.0749 84.2861L64.5946 71.9272C64.5946 71.9272 67.0354 71.0471 60.2362 68.35C59.9628 65.506 59.9248 60.6018 61.8213 58.9491C61.8561 58.9197 61.8815 58.8753 61.9098 58.8384C63.4579 58.1466 64.5281 57.1767 63.687 55.8704L62.0997 55.2008C63.1583 54.3089 64.7484 51.9779 64.9976 45.9229C65.1695 41.7579 64.3918 39.3187 63.4917 37.8827L66.6292 36.8219C66.6294 36.8236 69.0702 35.9434 62.272 33.2464ZM31.7255 33.1287L37.8667 31.3653L58.6206 25.4064L61.7126 24.5179C60.7247 27.0443 60.7661 30.5018 60.9296 32.7241C60.9654 33.2268 61.0066 33.6859 61.0467 34.0349L57.6622 35.2106L31.4673 44.3152L31.7255 33.1287ZM5.34528 42.0711L8.43691 42.9597L28.3681 48.6842L30.1093 49.1824L35.331 50.6819L35.5886 61.8687L8.66584 52.5102L6.01167 51.5886C6.0507 51.2391 6.09192 50.7806 6.12934 50.2765C6.29184 48.0559 6.33406 44.5976 5.34528 42.0711ZM4.14417 27.929C4.10675 25.4844 4.41853 23.7165 5.0487 22.8179C5.44974 22.2442 5.92302 22.1248 6.24761 22.1248C6.41911 22.1248 6.54259 22.1581 6.55099 22.1581L22.4818 29.4145L30.4299 33.035L30.1692 44.2998L7.87157 35.5657L6.69488 35.1052C6.65165 35.0881 6.59302 35.0764 6.54779 35.0736C6.45594 35.0643 4.25143 34.7808 4.14417 27.929ZM28.1326 79.4057L4.65887 70.2108C4.61545 70.1932 4.55741 70.1814 4.51219 70.1783C4.41873 70.1697 2.21323 69.8864 2.10656 63.0363C2.06854 60.5887 2.38193 58.8224 3.0109 57.923C3.41294 57.3492 3.88642 57.2298 4.21041 57.2298C4.38231 57.2298 4.50538 57.262 4.51439 57.262C4.51439 57.262 4.51539 57.262 4.51439 57.262L28.3917 68.1406L28.1326 79.4057ZM58.8918 67.8283C58.9288 68.3327 58.97 68.791 59.01 69.1405L29.4301 79.4216L29.6887 68.2348L36.0126 66.4183L36.9466 66.734L40.4471 65.1444L56.5828 60.5118L59.676 59.6226C58.6871 62.1488 58.7281 65.6077 58.8918 67.8283ZM60.5211 52.6251C60.4673 52.6268 60.4135 52.6369 60.3628 52.6592L58.1319 53.5319L36.8898 61.8538L36.63 50.5891L43.5993 47.4131L60.4747 39.7239C60.4769 39.7225 61.3624 39.4476 62.0124 40.3711C62.6416 41.2698 62.9538 43.0377 62.917 45.4822C62.8069 52.3318 60.6014 52.6165 60.5211 52.6251Z" fill="white"/>
    </g>
    <defs>
    <clipPath id="clip0_215_55">
    <rect width="67.0557" height="93.6878" fill="white"/>
    </clipPath>
    </defs>
    </svg>
    