<svg width="68" height="74" viewBox="0 0 68 74" fill="none" xmlns="http://www.w3.org/2000/svg">
    <path d="M62.272 22.6473C62.0008 19.7993 61.9626 14.894 63.8559 13.2469C63.8897 13.2167 63.9149 13.1731 63.9446 13.1356C65.4925 12.4439 66.5637 11.4731 65.7228 10.1668L42.8889 0.554199L5.91562 7.73626C5.91562 7.73626 1.68171 8.58177 2.05993 17.7722C2.26526 22.7742 3.38812 25.2308 4.3701 26.4398L1.33611 27.7172C0.494007 29.0235 1.56504 29.9946 3.11316 30.6852C3.14258 30.7238 3.16739 30.7671 3.20181 30.7973C5.09393 32.4458 5.05751 37.3505 4.78535 40.1991C-2.01208 42.8958 0.427968 43.7746 0.427968 43.7746L1.91905 44.2787C0.87023 45.6029 -0.171386 48.114 0.0237292 52.8764C0.402153 62.0651 3.87981 62.6993 3.87981 62.6993L28.0749 73.687L64.5946 61.3281C64.5946 61.3281 67.0354 60.4479 60.2362 57.7509C59.9628 54.9068 59.9248 50.0027 61.8213 48.35C61.8561 48.3206 61.8815 48.2762 61.9098 48.2392C63.4579 47.5475 64.5281 46.5776 63.687 45.2713L62.0997 44.6017C63.1583 43.7097 64.7484 41.3787 64.9976 35.3237C65.1695 31.1588 64.3918 28.7196 63.4917 27.2836L66.6292 26.2228C66.6294 26.2245 69.0702 25.3443 62.272 22.6473ZM31.7255 22.5296L37.8667 20.7661L58.6206 14.8073L61.7126 13.9188C60.7247 16.4452 60.7661 19.9027 60.9296 22.125C60.9654 22.6277 61.0066 23.0868 61.0466 23.4357L57.6623 24.6115L31.4673 33.716L31.7255 22.5296ZM5.34528 31.472L8.43691 32.3605L28.3681 38.0851L30.1093 38.5833L35.331 40.0828L35.5886 51.2695L8.66584 41.9111L6.01167 40.9895C6.0507 40.64 6.09192 40.1815 6.12934 39.6774C6.29184 37.4568 6.33406 33.9984 5.34528 31.472ZM4.14417 17.3299C4.10675 14.8853 4.41853 13.1174 5.0487 12.2188C5.44974 11.6451 5.92302 11.5257 6.24761 11.5257C6.41911 11.5257 6.54259 11.5589 6.55099 11.5589L22.4818 18.8154L30.4299 22.4359L30.1692 33.7007L7.87157 24.9665L6.69488 24.506C6.65165 24.489 6.59302 24.4772 6.54779 24.4745C6.45594 24.4652 4.25143 24.1817 4.14417 17.3299ZM28.1326 68.8065L4.65887 59.6117C4.61545 59.594 4.55741 59.5823 4.51219 59.5792C4.41873 59.5706 2.21323 59.2873 2.10656 52.4371C2.06854 49.9895 2.38193 48.2233 3.0109 47.3238C3.41294 46.7501 3.88642 46.6307 4.21041 46.6307C4.38231 46.6307 4.50538 46.6629 4.51439 46.6629C4.51439 46.6629 4.51539 46.6629 4.51439 46.6629L28.3917 57.5415L28.1326 68.8065ZM58.8918 57.2292C58.9288 57.7336 58.97 58.1919 59.01 58.5414L29.4301 68.8225L29.6887 57.6357L36.0126 55.8192L36.9466 56.1348L40.4471 54.5453L56.5828 49.9126L59.676 49.0235C58.6871 51.5497 58.7281 55.0086 58.8918 57.2292ZM60.5211 42.026C60.4673 42.0277 60.4135 42.0377 60.3628 42.0601L58.1319 42.9327L36.8898 51.2547L36.63 39.99L43.5993 36.814L60.4747 29.1247C60.4769 29.1233 61.3624 28.8485 62.0124 29.772C62.6416 30.6706 62.9538 32.4386 62.917 34.8831C62.8069 41.7327 60.6014 42.0173 60.5211 42.026Z" fill="white" />
</svg>
    