<svg width="63" height="63" viewBox="0 0 63 63" fill="none" xmlns="http://www.w3.org/2000/svg">
    <path d="M62.0628 12.9597C59.8709 13.9309 57.5163 14.5872 55.0409 14.8838C57.595 13.3555 59.5059 10.9501 60.4169 8.11654C58.0173 9.54189 55.3909 10.5452 52.6522 11.0828C50.8104 9.11631 48.3709 7.81289 45.7125 7.37491C43.0541 6.93692 40.3254 7.38887 37.9502 8.66058C35.5749 9.93229 33.6859 11.9526 32.5766 14.4079C31.4672 16.8632 31.1994 19.616 31.8149 22.239C26.9526 21.9949 22.1959 20.7311 17.8536 18.5297C13.5114 16.3282 9.68049 13.2383 6.60966 9.46054C5.55966 11.2718 4.95591 13.3718 4.95591 15.6083C4.95474 17.6217 5.45054 19.6042 6.39934 21.38C7.34814 23.1557 8.72058 24.6699 10.3949 25.788C8.45313 25.7263 6.5542 25.2016 4.85616 24.2577V24.4152C4.85596 27.239 5.83274 29.9759 7.62076 32.1615C9.40878 34.3472 11.8979 35.8469 14.6658 36.4062C12.8645 36.8937 10.9759 36.9655 9.14278 36.6162C9.92371 39.0459 11.4449 41.1706 13.4934 42.6928C15.5418 44.2151 18.0151 45.0586 20.5668 45.1054C16.2351 48.5059 10.8855 50.3504 5.37853 50.3423C4.40303 50.3426 3.42836 50.2856 2.45953 50.1717C8.04941 53.7657 14.5564 55.6732 21.202 55.6658C43.6983 55.6658 55.9964 37.0335 55.9964 20.874C55.9964 20.349 55.9833 19.8188 55.9597 19.2938C58.3518 17.5638 60.4167 15.4216 62.0575 12.9675L62.0628 12.9597Z" fill="#241400"/>
    </svg>
    