<svg width="24" height="31" viewBox="0 0 24 31" fill="none" xmlns="http://www.w3.org/2000/svg">
    <path fill-rule="evenodd" clip-rule="evenodd" d="M21.7405 26.2448C21.7405 29.7282 16.9635 30.1309 13.3713 30.1309L13.1142 30.1306C10.8256 30.1251 5 29.9806 5 26.2237C5 22.8114 9.58498 22.3554 13.1499 22.3382L13.6284 22.3379C15.9169 22.3434 21.7405 22.4879 21.7405 26.2448ZM13.3713 23.9229C8.86807 23.9229 6.58527 24.6965 6.58527 26.2237C6.58527 27.7646 8.86807 28.5456 13.3713 28.5456C17.8735 28.5456 20.1552 27.772 20.1552 26.2448C20.1552 24.7039 17.8735 23.9229 13.3713 23.9229ZM13.3713 9.13086C16.4657 9.13086 18.9821 11.6483 18.9821 14.7427C18.9821 17.8372 16.4657 20.3535 13.3713 20.3535H13.3375C10.2494 20.344 7.74781 17.8256 7.75834 14.7396C7.75834 11.6483 10.2758 9.13086 13.3713 9.13086ZM13.3713 10.64C11.1086 10.64 9.26753 12.48 9.26753 14.7427C9.26016 16.998 11.0874 18.837 13.3406 18.8454L13.3713 19.6V18.8454C15.633 18.8454 17.4729 17.0044 17.4729 14.7427C17.4729 12.48 15.633 10.64 13.3713 10.64Z" fill="black"/>
</svg>
    